<svg width="60" height="60" viewBox="0 0 60 60" fill="none" xmlns="http://www.w3.org/2000/svg">
<g clip-path="url(#clip0_1_1768)">
<path d="M8.80183 51.1988C20.5062 62.9263 39.5038 62.9351 51.2194 51.2194C62.9351 39.5038 62.9263 20.5062 51.1988 8.80183C39.4945 -2.9252 20.4969 -2.93449 8.78119 8.78119C-2.93449 20.4969 -2.9252 39.4945 8.80183 51.1988ZM2.15661 31.0573H9.30232C9.54276 35.8182 11.4235 40.3494 14.6251 43.8813L9.57321 48.9326C5.03677 44.0567 2.4048 37.7123 2.15661 31.0573ZM16.1199 45.376C19.6517 48.5771 24.1825 50.4573 28.9433 50.6978V57.8435C22.2883 57.5953 15.9439 54.9628 11.068 50.4264L16.1199 45.376ZM31.0568 50.6978C35.8481 50.4558 40.4057 48.5534 43.9468 45.3167L48.9971 50.367C44.1135 54.9396 37.7427 57.5948 31.0568 57.844V50.6978ZM45.4338 43.8152C48.6004 40.2927 50.4589 35.7877 50.6978 31.0573H57.8435C57.5969 37.6824 54.9871 44.0005 50.4862 48.8681L45.4338 43.8152ZM50.6978 28.9439C50.4573 24.183 48.5771 19.6517 45.375 16.1199L50.4269 11.068C54.9638 15.9439 57.5963 22.2883 57.8445 28.9439H50.6978ZM43.8813 14.6256C40.3489 11.424 35.8176 9.54328 31.0568 9.30284V2.1561C37.7123 2.40428 44.0567 5.03677 48.9326 9.57321L43.8813 14.6256ZM28.9433 9.30284C24.2129 9.54173 19.7085 11.4003 16.1854 14.5668L11.1325 9.51387C16.0007 5.01304 22.3183 2.40325 28.9433 2.1561V9.30284ZM30.0001 11.3899C40.2622 11.3894 48.6112 19.7384 48.6112 30.0006C48.6112 40.2628 40.2622 48.6112 30.0001 48.6112C19.7379 48.6112 11.3889 40.2633 11.3889 30.0006C11.3889 19.7379 19.7384 11.3894 30.0001 11.3894V11.3899ZM9.63358 11.0035L14.6844 16.0543C11.4472 19.5949 9.54483 24.1525 9.30284 28.9439H2.15713C2.40634 22.2584 5.06102 15.8877 9.63358 11.0035Z" fill="white"/>
<path d="M34.0434 22.253C34.9204 22.253 35.6313 21.554 35.6313 20.6918C35.6313 19.8295 34.9204 19.1305 34.0434 19.1305C33.1665 19.1305 32.4556 19.8295 32.4556 20.6918C32.4556 21.554 33.1665 22.253 34.0434 22.253Z" fill="white"/>
<path d="M35.6241 26.8253C35.6241 23.5146 32.901 20.8242 29.5512 20.8242C26.2013 20.8242 23.4783 23.5076 23.4783 26.8253C23.4783 30.1429 26.2013 32.8264 29.5512 32.8264C32.901 32.8264 35.6241 30.1429 35.6241 26.8253ZM25.3865 26.8462C25.3865 24.5531 27.2669 22.6921 29.593 22.6921C31.9191 22.6921 33.7994 24.5531 33.7994 26.8462C33.7994 29.1393 31.9191 31.0002 29.593 31.0002C27.2669 31.0002 25.3865 29.1393 25.3865 26.8462Z" fill="white"/>
<path d="M31.4875 32.6451C29.1893 32.6451 27.3228 34.4852 27.3228 36.7574C27.3228 39.0296 29.1893 40.8696 31.4875 40.8696C33.7857 40.8696 35.6522 39.0296 35.6522 36.7574C35.6522 34.4852 33.7857 32.6451 31.4875 32.6451ZM31.5154 39.155C30.1782 39.155 29.0918 38.0817 29.0918 36.7643C29.0918 35.447 30.1782 34.3737 31.5154 34.3737C32.8525 34.3737 33.939 35.447 33.939 36.7643C33.939 38.0817 32.8525 39.155 31.5154 39.155Z" fill="white"/>
</g>
<defs>
<clipPath id="clip0_1_1768">
<rect width="60" height="60" fill="white"/>
</clipPath>
</defs>
</svg>
